IKResults
version=1
nRows=14
nColumns=40
inDegrees=yes

Units are S.I. units (second, meters, Newtons, ...)
Angles are in degrees.

endheader
time	pelvis_tilt	pelvis_list	pelvis_rotation	pelvis_tx	pelvis_ty	pelvis_tz	hip_flexion_r	hip_adduction_r	hip_rotation_r	knee_angle_r	knee_angle_r_beta	ankle_angle_r	subtalar_angle_r	mtp_angle_r	hip_flexion_l	hip_adduction_l	hip_rotation_l	knee_angle_l	knee_angle_l_beta	ankle_angle_l	subtalar_angle_l	mtp_angle_l	lumbar_extension	lumbar_bending	lumbar_rotation	arm_flex_r	arm_add_r	arm_rot_r	elbow_flex_r	pro_sup_r	wrist_flex_r	wrist_dev_r	arm_flex_l	arm_add_l	arm_rot_l	elbow_flex_l	pro_sup_l	wrist_flex_l	wrist_dev_l
      0.43000000	     17.43155901	      4.80976044	     -5.12448546	     -0.89738310	      0.92972684	     -1.44059309	    -27.90697003	     -5.81465022	     -7.49637746	    -39.23500187	     -0.68477996	     -7.64298782	    -15.92802015	      2.63767687	      3.40360936	     -3.87356901	     15.24762828	    -21.33250401	     -0.37232243	      1.98841862	      2.91484023	     -6.14103231	    -20.35808260	     -8.83926322	      4.52225745	     -2.28763667	    -11.34364484	     -4.64611996	     46.20509941	     89.95437384	      0.00000000	      0.00000000	    -14.15633329	      6.85611787	     16.27526553	      9.93017832	     89.95437384	      0.00000000	      0.00000000
      0.44000000	     17.80868685	      4.85890979	     -5.07494618	     -0.88302731	      0.93263400	     -1.44239511	    -26.96750295	     -6.22901596	     -7.75600436	    -42.19076280	     -0.73636772	    -10.69209941	    -16.59282514	      3.92464931	      1.97562133	     -4.33635174	     14.36025301	    -21.17221693	     -0.36952490	      2.28458663	      3.11373826	     -6.10985032	    -20.67350328	     -8.85013632	      4.17512946	     -2.64634568	    -11.13382587	     -4.51851781	     44.89507496	     89.95437384	      0.00000000	      0.00000000	    -13.89358784	      6.86319756	     16.08915861	     10.26704827	     89.95437384	      0.00000000	      0.00000000
      0.45000000	     18.06800327	      5.12062745	     -4.81193520	     -0.86927525	      0.93535432	     -1.44484146	    -25.61612464	     -6.75694677	     -8.13856188	    -45.54662342	     -0.79493854	    -12.11689502	    -16.89133091	     19.66465697	      0.47732156	     -5.35249186	     12.15003832	    -20.49411625	     -0.35768981	      2.82772208	      6.09637605	     -6.40730367	    -20.98360672	     -8.95880076	      3.54246202	     -2.96303829	    -10.94828528	     -4.37129434	     43.56752651	     89.95437384	      0.00000000	      0.00000000	    -13.57237444	      6.88977942	     15.76780045	     10.76661131	     89.95437384	      0.00000000	      0.00000000
      0.46000000	     18.29606292	      5.01076235	     -4.86128872	     -0.85579644	      0.93768602	     -1.44650731	    -24.18516235	     -7.04314733	     -7.97873489	    -48.41807737	     -0.84505487	    -16.10041227	    -17.09963204	     20.11538411	     -0.79164457	     -5.46214115	     12.18787626	    -20.36543429	     -0.35544388	      3.40000147	      5.60067902	     -6.40379497	    -21.24788963	     -8.78474054	      3.32574667	     -3.20606151	    -10.81642695	     -4.22085795	     42.24684049	     89.95437384	      0.00000000	      0.00000000	    -13.10271216	      6.87222194	     15.60973164	     11.17073166	     89.95437384	      0.00000000	      0.00000000
      0.47000000	     18.43788986	      4.95799508	     -4.82410165	     -0.84241392	      0.93968007	     -1.44809131	    -22.59024636	     -7.27277583	     -7.77371785	    -51.18057207	     -0.89326950	    -19.30412963	    -17.67641761	     20.68864858	     -2.04160299	     -5.59501410	     12.34693595	    -20.08057992	     -0.35047224	      3.74361696	      5.18059360	     -6.38789212	    -21.44625416	     -8.64953924	      3.02225604	     -3.53897174	    -10.72601461	     -3.83494874	     40.96973839	     89.95437384	      0.00000000	      0.00000000	    -12.63205188	      6.91455505	     15.44123144	     11.74250153	     89.95437384	      0.00000000	      0.00000000
      0.48000000	     18.63908998	      4.70752422	     -4.77387128	     -0.82961441	      0.94168792	     -1.44941410	    -21.03544264	     -7.06449722	     -7.04525886	    -53.60467065	     -0.93557800	    -21.83484020	    -17.08574158	     20.72856938	     -3.41016800	     -5.49553334	     12.44270854	    -19.69969670	     -0.34382457	      4.35844811	      4.55098662	     -6.38834542	    -21.77914166	     -8.32805696	      2.75931665	     -3.72316517	    -10.57880041	     -3.62238622	     39.55027038	     89.95437384	      0.00000000	      0.00000000	    -11.94932224	      6.91608702	     15.29299294	     12.25790076	     89.95437384	      0.00000000	      0.00000000
      0.49000000	     18.67589702	      4.37057675	     -5.04675541	     -0.81722474	      0.94325312	     -1.44993060	    -19.14401150	     -6.69360891	     -5.74743842	    -56.09332500	     -0.97901321	    -21.26015857	    -15.99307619	     19.31493210	     -4.52045410	     -5.12248253	     13.67420263	    -19.42043798	     -0.33895059	      4.69096661	      3.08187726	     -6.38096704	    -21.94171435	     -8.03171248	      2.78849907	     -3.85815647	    -10.49106435	     -3.17519775	     38.15666808	     89.95437384	      0.00000000	      0.00000000	    -11.23970557	      6.97951382	     15.14988823	     12.79658420	     89.95437384	      0.00000000	      0.00000000
      0.50000000	     18.77074813	      3.92600750	     -4.89943199	     -0.80491096	      0.94497209	     -1.45078500	    -17.61926252	     -5.92756239	     -4.79899932	    -58.04204560	     -1.01302480	    -18.95248466	    -14.35762690	     18.02434468	     -5.79217079	     -4.71269912	     13.91530296	    -18.99315017	     -0.33149301	      5.26057574	      2.23641363	     -6.32450551	    -22.23175980	     -7.50547521	      2.42543141	     -3.89945468	    -10.25978071	     -2.99341378	     36.53184578	     89.95437384	      0.00000000	      0.00000000	    -10.53172597	      7.11720158	     14.78249192	     13.40102930	     89.95437384	      0.00000000	      0.00000000
      0.51000000	     19.00487928	      3.79171279	     -5.04766206	     -0.79258111	      0.94669249	     -1.45184387	    -16.11881608	     -5.86024162	     -4.08045575	    -59.94386911	     -1.04621788	    -15.33601492	    -10.75833559	     15.35225809	     -7.18128870	     -4.58182096	     15.26379062	    -18.55690969	     -0.32387917	      5.33704189	      0.54356257	     -6.35242053	    -22.59863270	     -7.34784123	      2.30033275	     -4.10253125	    -10.14008636	     -2.75864027	     35.19567307	     89.95437384	      0.00000000	      0.00000000	     -9.62893342	      7.26006107	     14.26592383	     13.82052059	     89.95437384	      0.00000000	      0.00000000
      0.52000000	     19.21596105	      3.34028538	     -4.67965743	     -0.78015710	      0.94862483	     -1.45292513	    -14.82195887	     -5.08604130	     -3.86972547	    -61.20666445	     -1.06825782	    -12.67506059	    -10.14938714	     14.37228140	     -8.66815393	     -4.19998011	     15.13642930	    -17.95671964	     -0.31340388	      5.84497780	     -0.18795989	     -6.37562006	    -22.97104137	     -6.76273510	      1.79852334	     -4.13116270	     -9.91831037	     -2.60288275	     33.41088806	     89.95437384	      0.00000000	      0.00000000	     -8.66771020	      7.44229764	     13.91600736	     14.19157277	     89.95437384	      0.00000000	      0.00000000
      0.53000000	     19.47897330	      3.10594334	     -4.40740294	     -0.76765503	      0.95043460	     -1.45419777	    -13.51968900	     -4.77097245	     -3.78746339	    -62.32168778	     -1.08771865	     -9.75715771	     -7.53931384	     12.44538398	    -10.18418337	     -4.01346129	     15.48775857	    -17.33497672	     -0.30255242	      5.90695454	     -1.35152168	     -6.42816335	    -23.36762547	     -6.39845706	      1.29906434	     -4.32427691	     -9.68532578	     -2.57161059	     31.93596265	     89.95437384	      0.00000000	      0.00000000	     -7.73837793	      7.64665404	     13.49819857	     14.71843027	     89.95437384	      0.00000000	      0.00000000
      0.54000000	     19.56851354	      2.78563116	     -4.02628749	     -0.75549150	      0.95202586	     -1.45551802	    -12.03073769	     -4.11111267	     -3.63415231	    -63.03137900	     -1.10010510	     -8.03394186	     -7.17740663	     11.71151564	    -11.46770154	     -3.76064988	     15.25866455	    -16.74285931	     -0.29221802	      6.30202501	     -1.87855788	     -6.45549490	    -23.60599229	     -5.90436069	      0.75507922	     -4.41333335	     -9.49916644	     -2.43237019	     30.30148733	     89.95437384	      0.00000000	      0.00000000	     -6.58566369	      7.84888726	     13.17723664	     14.92256762	     89.95437384	      0.00000000	      0.00000000
      0.55000000	     19.66216893	      2.55762998	     -3.46163167	     -0.74315063	      0.95348838	     -1.45716250	    -10.69271772	     -3.63960881	     -3.79121493	    -63.38804808	     -1.10633015	     -5.99578845	     -5.58595687	      9.83231948	    -12.78012979	     -3.55599564	     15.01545963	    -16.04712413	     -0.28007515	      6.44574854	     -2.46997327	     -6.55453234	    -23.83671710	     -5.43601792	      0.00524802	     -4.59535004	     -9.24545940	     -2.57680978	     28.81322581	     89.95437384	      0.00000000	      0.00000000	     -5.58341056	      8.11617342	     12.56274515	     15.46434023	     89.95437384	      0.00000000	      0.00000000
      0.56000000	     19.59372936	      2.23922767	     -3.04487921	     -0.73127745	      0.95456992	     -1.45853027	     -9.07709184	     -3.01082759	     -3.80934327	    -63.58472587	     -1.10976282	     -4.69444324	     -5.70356897	      9.21591661	    -13.82730987	     -3.25908645	     14.60707621	    -15.52771829	     -0.27100981	      6.75987167	     -2.89441012	     -6.57848467	    -23.92507751	     -4.91303584	     -0.45771228	     -4.82648271	     -9.15184982	     -2.42221933	     27.43551775	     89.95437384	      0.00000000	      0.00000000	     -4.32426348	      8.36214457	     12.25874684	     15.71801648	     89.95437384	      0.00000000	      0.00000000
